<mxfile host="app.diagrams.net" modified="2021-01-27T15:40:34.089Z" agent="5.0 (Windows NT 10.0; Win64; x64) AppleWebKit/537.36 (KHTML, like Gecko) Chrome/87.0.4280.66 Safari/537.36" etag="a5LjJuASSrsU18nAXkmS" version="14.2.7" type="github">
  <diagram id="Vw4Sm47W4OSSpkKUUUvN" name="Page-1">
    <mxGraphModel dx="918" dy="512" grid="1" gridSize="10" guides="1" tooltips="1" connect="1" arrows="1" fold="1" page="1" pageScale="1" pageWidth="850" pageHeight="1100" math="0" shadow="0">
      <root>
        <mxCell id="0" />
        <mxCell id="1" parent="0" />
        <mxCell id="xmDHnL4M0tTNH0YLq6bb-1" value="Show" style="shape=table;startSize=50;container=1;collapsible=1;childLayout=tableLayout;fixedRows=1;rowLines=0;fontStyle=1;align=center;resizeLast=1;columnLines=1;resizeLastRow=0;" vertex="1" parent="1">
          <mxGeometry x="300" y="430" width="180" height="220" as="geometry" />
        </mxCell>
        <mxCell id="xmDHnL4M0tTNH0YLq6bb-2" value="" style="shape=partialRectangle;collapsible=0;dropTarget=0;pointerEvents=0;fillColor=none;top=0;left=0;bottom=0;right=0;points=[[0,0.5],[1,0.5]];portConstraint=eastwest;" vertex="1" parent="xmDHnL4M0tTNH0YLq6bb-1">
          <mxGeometry y="50" width="180" height="40" as="geometry" />
        </mxCell>
        <mxCell id="xmDHnL4M0tTNH0YLq6bb-3" value="PK,FK1" style="shape=partialRectangle;connectable=0;fillColor=none;top=0;left=0;bottom=0;right=0;fontStyle=1;overflow=hidden;" vertex="1" parent="xmDHnL4M0tTNH0YLq6bb-2">
          <mxGeometry width="60" height="40" as="geometry" />
        </mxCell>
        <mxCell id="xmDHnL4M0tTNH0YLq6bb-4" value="Hall" style="shape=partialRectangle;connectable=0;fillColor=none;top=0;left=0;bottom=0;right=0;align=left;spacingLeft=6;fontStyle=5;overflow=hidden;" vertex="1" parent="xmDHnL4M0tTNH0YLq6bb-2">
          <mxGeometry x="60" width="120" height="40" as="geometry" />
        </mxCell>
        <mxCell id="xmDHnL4M0tTNH0YLq6bb-5" value="" style="shape=partialRectangle;collapsible=0;dropTarget=0;pointerEvents=0;fillColor=none;top=0;left=0;bottom=1;right=0;points=[[0,0.5],[1,0.5]];portConstraint=eastwest;" vertex="1" parent="xmDHnL4M0tTNH0YLq6bb-1">
          <mxGeometry y="90" width="180" height="30" as="geometry" />
        </mxCell>
        <mxCell id="xmDHnL4M0tTNH0YLq6bb-6" value="PK,FK2" style="shape=partialRectangle;connectable=0;fillColor=none;top=0;left=0;bottom=0;right=0;fontStyle=1;overflow=hidden;" vertex="1" parent="xmDHnL4M0tTNH0YLq6bb-5">
          <mxGeometry width="60" height="30" as="geometry" />
        </mxCell>
        <mxCell id="xmDHnL4M0tTNH0YLq6bb-7" value="Datetime" style="shape=partialRectangle;connectable=0;fillColor=none;top=0;left=0;bottom=0;right=0;align=left;spacingLeft=6;fontStyle=5;overflow=hidden;" vertex="1" parent="xmDHnL4M0tTNH0YLq6bb-5">
          <mxGeometry x="60" width="120" height="30" as="geometry" />
        </mxCell>
        <mxCell id="xmDHnL4M0tTNH0YLq6bb-18" value="" style="shape=partialRectangle;collapsible=0;dropTarget=0;pointerEvents=0;fillColor=none;top=0;left=0;bottom=0;right=0;points=[[0,0.5],[1,0.5]];portConstraint=eastwest;" vertex="1" parent="xmDHnL4M0tTNH0YLq6bb-1">
          <mxGeometry y="120" width="180" height="30" as="geometry" />
        </mxCell>
        <mxCell id="xmDHnL4M0tTNH0YLq6bb-19" value="FK" style="shape=partialRectangle;connectable=0;fillColor=none;top=0;left=0;bottom=0;right=0;editable=1;overflow=hidden;fontStyle=1" vertex="1" parent="xmDHnL4M0tTNH0YLq6bb-18">
          <mxGeometry width="60" height="30" as="geometry" />
        </mxCell>
        <mxCell id="xmDHnL4M0tTNH0YLq6bb-20" value="Movie" style="shape=partialRectangle;connectable=0;fillColor=none;top=0;left=0;bottom=0;right=0;align=left;spacingLeft=6;overflow=hidden;fontStyle=1" vertex="1" parent="xmDHnL4M0tTNH0YLq6bb-18">
          <mxGeometry x="60" width="120" height="30" as="geometry" />
        </mxCell>
        <mxCell id="xmDHnL4M0tTNH0YLq6bb-8" value="" style="shape=partialRectangle;collapsible=0;dropTarget=0;pointerEvents=0;fillColor=none;top=0;left=0;bottom=0;right=0;points=[[0,0.5],[1,0.5]];portConstraint=eastwest;" vertex="1" parent="xmDHnL4M0tTNH0YLq6bb-1">
          <mxGeometry y="150" width="180" height="20" as="geometry" />
        </mxCell>
        <mxCell id="xmDHnL4M0tTNH0YLq6bb-9" value="Int" style="shape=partialRectangle;connectable=0;fillColor=none;top=0;left=0;bottom=0;right=0;editable=1;overflow=hidden;" vertex="1" parent="xmDHnL4M0tTNH0YLq6bb-8">
          <mxGeometry width="60" height="20" as="geometry" />
        </mxCell>
        <mxCell id="xmDHnL4M0tTNH0YLq6bb-10" value="VIP price" style="shape=partialRectangle;connectable=0;fillColor=none;top=0;left=0;bottom=0;right=0;align=left;spacingLeft=6;overflow=hidden;" vertex="1" parent="xmDHnL4M0tTNH0YLq6bb-8">
          <mxGeometry x="60" width="120" height="20" as="geometry" />
        </mxCell>
        <mxCell id="xmDHnL4M0tTNH0YLq6bb-11" value="" style="shape=partialRectangle;collapsible=0;dropTarget=0;pointerEvents=0;fillColor=none;top=0;left=0;bottom=0;right=0;points=[[0,0.5],[1,0.5]];portConstraint=eastwest;" vertex="1" parent="xmDHnL4M0tTNH0YLq6bb-1">
          <mxGeometry y="170" width="180" height="30" as="geometry" />
        </mxCell>
        <mxCell id="xmDHnL4M0tTNH0YLq6bb-12" value="Int" style="shape=partialRectangle;connectable=0;fillColor=none;top=0;left=0;bottom=0;right=0;editable=1;overflow=hidden;" vertex="1" parent="xmDHnL4M0tTNH0YLq6bb-11">
          <mxGeometry width="60" height="30" as="geometry" />
        </mxCell>
        <mxCell id="xmDHnL4M0tTNH0YLq6bb-13" value="Medium price" style="shape=partialRectangle;connectable=0;fillColor=none;top=0;left=0;bottom=0;right=0;align=left;spacingLeft=6;overflow=hidden;" vertex="1" parent="xmDHnL4M0tTNH0YLq6bb-11">
          <mxGeometry x="60" width="120" height="30" as="geometry" />
        </mxCell>
        <mxCell id="xmDHnL4M0tTNH0YLq6bb-15" value="" style="shape=partialRectangle;collapsible=0;dropTarget=0;pointerEvents=0;fillColor=none;top=0;left=0;bottom=0;right=0;points=[[0,0.5],[1,0.5]];portConstraint=eastwest;" vertex="1" parent="xmDHnL4M0tTNH0YLq6bb-1">
          <mxGeometry y="200" width="180" height="20" as="geometry" />
        </mxCell>
        <mxCell id="xmDHnL4M0tTNH0YLq6bb-16" value="Int" style="shape=partialRectangle;connectable=0;fillColor=none;top=0;left=0;bottom=0;right=0;editable=1;overflow=hidden;" vertex="1" parent="xmDHnL4M0tTNH0YLq6bb-15">
          <mxGeometry width="60" height="20" as="geometry" />
        </mxCell>
        <mxCell id="xmDHnL4M0tTNH0YLq6bb-17" value="Cheap price" style="shape=partialRectangle;connectable=0;fillColor=none;top=0;left=0;bottom=0;right=0;align=left;spacingLeft=6;overflow=hidden;" vertex="1" parent="xmDHnL4M0tTNH0YLq6bb-15">
          <mxGeometry x="60" width="120" height="20" as="geometry" />
        </mxCell>
      </root>
    </mxGraphModel>
  </diagram>
</mxfile>
